<svg width="66" height="66" viewBox="0 0 66 66" fill="none" xmlns="http://www.w3.org/2000/svg">
<path d="M56.3703 64H55.6296V59.5797H54V59H57.9999V59.5797H56.3703V64Z" fill="#006241"/>
<path d="M61.3336 62.8406L62.8891 59H64.0002V64H63.2595V59.7971L61.5558 64H61.1114L59.4077 59.7971V64H58.667V59H59.7781L61.3336 62.8406Z" fill="#006241"/>
<path d="M63 33C63 49.5527 49.5748 63 32.9857 63C16.4252 62.9715 3 49.5527 3 33C3 16.4473 16.4252 3 33.0143 3C49.5748 3 63 16.4188 63 33Z" fill="white"/>
<path d="M35.9887 15.963C35.7325 15.906 34.4517 15.7066 32.9716 15.7066C31.4916 15.7066 30.2107 15.906 29.9546 15.963C29.8123 15.9915 29.7553 15.849 29.8692 15.7635C29.983 15.6781 32.9716 13.3989 32.9716 13.3989C32.9716 13.3989 35.9602 15.6781 36.0741 15.7635C36.1879 15.849 36.131 15.9915 35.9887 15.963ZM30.78 30.8063C30.78 30.8063 30.6092 30.8632 30.5808 31.0057C31.2069 31.49 31.6339 32.6011 32.9432 32.6011C34.2525 32.6011 34.6794 31.49 35.3056 31.0057C35.2771 30.8632 35.1064 30.8063 35.1064 30.8063C35.1064 30.8063 34.2809 31.0057 32.9432 31.0057C31.6054 31.0057 30.78 30.8063 30.78 30.8063ZM32.9716 28.9544C32.6016 28.9544 32.5162 28.812 32.2885 28.812C32.0608 28.812 31.6054 29.0114 31.4916 29.1823C31.4916 29.2678 31.52 29.3533 31.6054 29.4103C32.1462 29.4957 32.3739 29.7806 33.0001 29.7806C33.6263 29.7806 33.854 29.4957 34.3948 29.4103C34.4517 29.3533 34.4802 29.2678 34.5086 29.1823C34.4232 29.0114 33.9394 28.812 33.7117 28.812C33.3986 28.812 33.3132 28.9544 32.9716 28.9544ZM62.8861 34.6239C62.8577 35.3362 62.7723 36.0484 62.6869 36.7607C59.2998 37.3305 58.0759 34.3105 54.6034 34.453C54.8027 35.1937 54.9735 35.9345 55.1158 36.7037C57.9905 36.7037 59.129 39.3818 62.3169 38.9829C62.1461 39.8091 61.9469 40.6068 61.7192 41.4046C59.186 41.661 58.3036 39.1538 55.4004 39.2108C55.4289 39.6382 55.4289 40.037 55.4289 40.4644C55.4289 40.6923 55.4289 40.9202 55.4289 41.1766C57.9051 41.1481 58.7306 43.4558 61.093 43.3419C60.8084 44.1396 60.4668 44.9373 60.0968 45.7066C58.389 45.6211 57.8198 43.4273 55.2296 43.5983C55.1442 44.1681 55.0588 44.7094 54.945 45.2507C57.1936 45.0798 57.6774 47.1595 59.2998 47.3305C58.9013 48.0712 58.4459 48.812 57.9905 49.5242C57.0228 49.0114 56.1974 47.4729 54.4042 47.359C54.6034 46.7892 54.7458 46.2194 54.8881 45.6211C53.2942 45.6211 51.4441 44.9943 49.9071 43.5983C50.3909 40.7493 45.9792 37.8433 45.9792 35.7635C45.9792 33.5128 47.1177 32.2593 47.1177 29.2108C47.1177 26.9316 46.0076 24.4815 44.3568 22.8006C44.0437 22.4872 43.7022 22.2023 43.3321 21.9744C44.8407 23.8547 46.0361 26.1054 46.0361 28.6695C46.0361 31.547 44.6984 33.057 44.6984 35.7066C44.6984 38.3561 48.5693 40.6638 48.5693 43.3989C48.5693 44.4815 48.2278 45.5356 47.0892 47.5869C48.8255 49.3248 51.1025 50.265 52.5541 50.265C53.038 50.265 53.2942 50.1225 53.4649 49.7521C53.6072 49.4387 53.7496 49.0969 53.8919 48.7835C55.4573 48.8405 56.1974 50.265 57.0513 50.8632C56.5674 51.5185 56.0835 52.1168 55.5427 52.7151C54.945 52.0598 54.1765 50.9772 53.0095 50.6638C52.8103 51.0627 52.5826 51.4615 52.3549 51.8604C53.3511 52.1168 54.0342 53.1424 54.5465 53.7977C53.9773 54.396 53.3795 54.9373 52.7818 55.4786C52.4118 54.8803 51.8141 54.1396 51.131 53.7122C50.8748 54.0541 50.6186 54.3675 50.3625 54.6809C50.9317 55.0798 51.4441 55.7635 51.7572 56.3333C51.0456 56.9031 50.3055 57.4444 49.5655 57.9573C49.1955 54.9088 45.0399 52.8291 46.15 49.2963C45.7799 49.9231 45.353 50.6923 45.353 51.6325C45.353 54.1966 48.0854 56.2194 48.2847 58.755C47.7154 59.0969 47.1462 59.4103 46.5484 59.7236C46.4631 56.9316 43.5598 53.8832 43.5598 51.5755C43.5598 49.0114 46.9185 46.4473 46.9185 43.4273C46.9185 40.4074 43.0475 38.2991 43.0475 35.6496C43.0475 33 44.6984 31.4615 44.6984 28.0712C44.6984 25.5926 43.5314 23.057 41.6813 21.4615C41.3682 21.1766 41.0551 20.9487 40.6566 20.7493C42.3929 22.8291 43.3891 24.6809 43.3891 27.5299C43.3891 30.7208 41.5105 32.5157 41.5105 35.6211C41.5105 38.755 45.2961 40.4929 45.2961 43.3989C45.2961 46.3048 41.7667 48.7835 41.7667 51.7749C41.7667 54.51 44.8691 57.2165 44.9261 60.4644C44.243 60.7493 43.5598 61.0342 42.8483 61.2906C43.2467 58.0142 39.7458 54.6524 39.7458 51.9744C39.7458 49.0684 43.4175 46.5613 43.4175 43.3989C43.4175 40.265 39.6889 38.7835 39.6889 35.5641C39.6889 32.3447 41.9659 30.5499 41.9659 26.9886C41.9659 24.1966 40.5997 21.7179 38.5788 20.151C38.5504 20.1225 38.4934 20.094 38.465 20.0655C38.2657 19.9231 38.1234 20.094 38.2657 20.265C39.6889 22.0313 40.4289 23.8262 40.4289 26.4758C40.4289 29.7521 37.8103 32.4017 37.8103 35.5641C37.8103 39.2963 41.3397 40.3504 41.3397 43.4273C41.3397 46.4758 37.5542 48.9259 37.5542 52.1738C37.5542 55.1937 41.1405 58.5271 40.5143 62.0028C39.8027 62.2023 39.0627 62.3447 38.3227 62.4872C39.0058 58.1567 35.4764 55.0513 35.4764 52.2023C35.4764 49.1254 39.3758 46.3903 39.3758 43.3989C39.3758 40.5783 36.558 39.6382 36.1879 36.7607C36.131 36.3618 35.8179 36.0769 35.391 36.1339C34.8217 36.2479 34.0817 36.6182 32.9432 36.6182C31.8047 36.6182 31.0646 36.2479 30.4954 36.1339C30.0684 36.0484 29.7553 36.3618 29.6984 36.7607C29.3284 39.6667 26.5106 40.5783 26.5106 43.3989C26.5106 46.3903 30.41 49.1254 30.41 52.2023C30.41 55.0228 26.909 58.1567 27.5637 62.4872C26.8237 62.3447 26.1121 62.2023 25.372 62.0028C24.7459 58.5271 28.3322 55.1937 28.3322 52.1738C28.3322 48.9259 24.5466 46.4758 24.5466 43.4273C24.5466 40.3789 28.076 39.2963 28.076 35.5641C28.076 32.4017 25.4574 29.7521 25.4574 26.4758C25.4574 23.8262 26.2259 22.0313 27.6206 20.265C27.7629 20.094 27.5922 19.9231 27.4214 20.0655C27.3929 20.094 27.336 20.1225 27.3075 20.151C25.3151 21.6895 23.9204 24.1966 23.9204 26.9886C23.9204 30.5499 26.1975 32.3447 26.1975 35.5641C26.1975 38.7835 22.4688 40.265 22.4688 43.3989C22.4688 46.5328 26.1405 49.0399 26.1405 51.9744C26.1405 54.6524 22.6396 58.0142 23.0381 61.2906C22.3265 61.0342 21.6434 60.7778 20.9603 60.4644C21.0172 57.2165 24.1197 54.51 24.1197 51.7749C24.1197 48.7835 20.5903 46.3048 20.5903 43.3989C20.5903 40.4929 24.3758 38.7265 24.3758 35.6211C24.3758 32.4872 22.4973 30.7208 22.4973 27.5299C22.4973 24.6809 23.4935 22.8006 25.2297 20.7493C24.8597 20.9487 24.5182 21.1766 24.2051 21.4615C22.4119 23.057 21.2449 25.5926 21.2449 28.0712C21.2449 31.4615 22.8958 33 22.8958 35.6496C22.8958 38.2991 19.0248 40.4074 19.0248 43.4273C19.0248 46.4473 22.3834 49.0114 22.3834 51.5755C22.3834 53.8832 19.5087 56.9316 19.3948 59.7236C18.7971 59.4103 18.2279 59.0969 17.6586 58.755C17.8863 56.2194 20.5903 54.1966 20.5903 51.6325C20.5903 50.6923 20.1633 49.9231 19.7933 49.2963C20.9034 52.8291 16.7478 54.9088 16.3778 57.9573C15.6093 57.4444 14.8977 56.9031 14.1861 56.3333C14.4992 55.7635 15.0115 55.0798 15.5808 54.6809C15.3246 54.3675 15.0685 54.0256 14.8123 53.7122C14.1577 54.1111 13.5599 54.8803 13.1615 55.4786C12.5637 54.9373 11.966 54.3675 11.3968 53.7977C11.9091 53.1424 12.5922 52.1453 13.5884 51.8604C13.3607 51.4615 13.133 51.0912 12.9338 50.6638C11.7952 50.9772 10.9983 52.0598 10.4006 52.7151C9.85976 52.1168 9.37589 51.49 8.89202 50.8632C9.77437 50.2934 10.4859 48.8689 12.0514 48.7835C12.1937 49.1254 12.3076 49.4387 12.4783 49.7521C12.6491 50.1225 12.9053 50.265 13.3892 50.265C14.8408 50.265 17.1178 49.3248 18.854 47.5869C17.7155 45.5356 17.374 44.4815 17.374 43.3989C17.374 40.6638 21.2449 38.3846 21.2449 35.7066C21.2449 33.057 19.9072 31.547 19.9072 28.6695C19.9072 26.0769 21.0741 23.8547 22.6111 21.9744C22.2411 22.2023 21.8996 22.4872 21.5865 22.8006C19.9356 24.4815 18.8256 26.9316 18.8256 29.2108C18.8256 32.2593 19.9641 33.5128 19.9641 35.7635C19.9641 37.8433 15.5523 40.7493 16.0647 43.5983C14.5277 44.9943 12.6776 45.6211 11.0837 45.6211C11.226 46.2194 11.3968 46.7892 11.5675 47.359C9.74591 47.4444 8.92049 49.0114 7.98121 49.5242C7.49734 48.812 7.0704 48.0712 6.67192 47.3305C8.2943 47.1595 8.77817 45.0798 11.0267 45.2507C10.9129 44.7094 10.799 44.1396 10.7421 43.5983C8.15199 43.4273 7.55427 45.6211 5.87496 45.7066C5.50494 44.9373 5.19185 44.1396 4.87875 43.3419C7.24118 43.4558 8.0666 41.1481 10.5429 41.1766C10.5429 40.9487 10.5429 40.7208 10.5429 40.4644C10.5429 40.037 10.5429 39.6097 10.5713 39.2108C7.66812 39.1538 6.75731 41.661 4.25257 41.4046C4.02487 40.6068 3.82563 39.8091 3.65485 38.9829C6.84269 39.3818 7.98121 36.7037 10.856 36.7037C10.9983 35.9345 11.1406 35.1937 11.3683 34.453C7.89582 34.3105 6.67192 37.3305 3.28483 36.7607C3.19944 36.0484 3.14252 35.3362 3.08559 34.6239C7.01347 35.0798 8.49354 31.8319 12.1083 32.2308C12.4499 31.3761 12.8484 30.5499 13.2753 29.7521C8.77817 28.9544 7.24118 32.7151 3.05713 32.1453C3.45561 15.963 16.6909 3 32.9716 3C49.224 3 62.4592 15.963 62.9146 32.1453C58.7306 32.7151 57.1936 28.9544 52.6964 29.7521C53.1518 30.5499 53.5219 31.3761 53.8634 32.2308C57.4497 31.8319 58.9298 35.0798 62.8861 34.6239ZM20.0779 22.0598C17.8863 21.1481 15.2108 21.3761 12.9338 22.8291C12.5922 20.6923 11.4252 18.812 9.77437 17.6724C9.54667 17.5014 9.31897 17.6724 9.31897 17.9288C9.66052 22.4302 7.04194 26.3048 3.82563 29.7521C7.15579 30.7493 9.97361 26.4758 14.2715 27.9573C15.837 25.6496 17.8009 23.6553 20.0779 22.0598ZM32.9716 19.3533C30.1823 19.3533 27.8483 20.9202 27.2506 22.9715C27.1937 23.114 27.2791 23.2279 27.4498 23.1424C27.9622 22.9145 28.5314 22.8006 29.1291 22.8006C30.2677 22.8006 31.2639 23.2279 31.8616 23.9402C32.1178 24.7949 32.1462 26.0484 31.8616 26.7607C31.4062 26.6467 31.2354 26.3048 30.78 26.3048C30.3246 26.3048 29.983 26.6182 29.1861 26.6182C28.4176 26.6182 28.3322 26.2479 27.8199 26.2479C27.2221 26.2479 27.1083 26.8746 27.1083 27.5584C27.1083 30.6638 29.9546 34.9373 33.0001 34.9373C36.0172 34.9373 38.8635 30.6638 38.8635 27.5584C38.8635 26.8746 38.7211 26.2764 38.095 26.1909C37.7819 26.4188 37.4972 26.6182 36.7857 26.6182C36.0172 26.6182 35.7895 26.3048 35.3341 26.3048C34.7933 26.3048 34.8502 27.4729 34.1955 27.5299C33.7686 26.4758 33.7401 25.1368 34.1102 23.9402C34.7079 23.2279 35.7041 22.8006 36.8426 22.8006C37.4688 22.8006 38.038 22.9145 38.5219 23.1424C38.6927 23.2279 38.7781 23.114 38.7211 22.9715C38.0665 20.9202 35.7325 19.3533 32.9716 19.3533ZM37.3834 23.7977C36.7287 23.7977 35.9318 23.9972 35.4479 24.5385C35.391 24.6809 35.391 24.9088 35.4764 25.0513C36.6718 24.6239 37.7534 24.6239 38.2657 25.1937C38.5504 24.9373 38.6358 24.7094 38.6358 24.453C38.6358 24.0826 38.2088 23.7977 37.3834 23.7977ZM27.6775 25.2222C28.2468 24.6239 29.4992 24.6524 30.78 25.1368C30.8369 24.51 29.6984 23.7977 28.5599 23.7977C27.7345 23.7977 27.336 24.0826 27.336 24.4815C27.3075 24.7379 27.3929 24.9658 27.6775 25.2222ZM46.8331 14.7094C44.6414 14.8519 42.7344 15.6211 41.1974 16.8746C41.8521 15.0228 42.6775 13.3989 43.7306 11.8034C40.9413 12.0883 38.6073 13.114 36.8995 14.8803L35.5618 11.3761L38.5219 8.75499L34.5656 8.47009L32.9716 4.76638L31.3777 8.47009L27.4214 8.75499L30.3815 11.3761L29.0438 14.8803C27.336 13.1425 25.002 12.1168 22.2127 11.8034C23.2658 13.3704 24.0912 14.9943 24.7459 16.8746C23.2089 15.6211 21.3018 14.8519 19.1102 14.7094C20.4195 16.4188 21.5865 18.2137 22.4688 20.151C22.5542 20.3789 22.7819 20.4359 23.0096 20.3219C26.0267 18.8405 29.4138 17.9858 33.0001 17.9858C36.5864 17.9858 39.9735 18.8405 42.9906 20.3219C43.2183 20.4359 43.4175 20.3504 43.5314 20.151C44.3568 18.2137 45.5238 16.4188 46.8331 14.7094ZM51.6148 27.9573C55.9127 26.4758 58.759 30.7493 62.0892 29.7521C58.8729 26.3333 56.2543 22.4302 56.5958 17.9288C56.6243 17.6724 56.3681 17.5014 56.1689 17.6724C54.5181 18.812 53.3795 20.6923 53.0095 22.8291C50.7325 21.3476 48.057 21.1481 45.8653 22.0598C48.1139 23.6553 50.0778 25.6496 51.6148 27.9573Z" fill="#006241"/>
</svg>
